<svg width="32" height="32" viewBox="0 0 32 32" fill="none" xmlns="http://www.w3.org/2000/svg">
  <!-- WhatsApp-style background circle -->
  <circle cx="16" cy="16" r="15" fill="#25D366"/>
  
  <!-- Chat bubble shape -->
  <path d="M16 6C10.477 6 6 10.477 6 16C6 17.89 6.525 19.66 7.438 21.166L6.5 25.5L10.959 24.58C12.417 25.407 14.155 26 16 26C21.523 26 26 21.523 26 16C26 10.477 21.523 6 16 6Z" fill="white"/>
  
  <!-- Phone icon inside bubble -->
  <path d="M19.5 18.5C19.3 18.4 18.1 17.8 17.9 17.7C17.7 17.6 17.5 17.6 17.4 17.8C17.2 18 16.8 18.5 16.7 18.7C16.5 18.9 16.4 18.9 16.2 18.8C15.1 18.3 14.2 17.7 13.4 16.9C13.1 16.6 12.8 16.2 12.6 15.9C12.5 15.7 12.6 15.6 12.7 15.5C12.8 15.4 12.9 15.2 13 15.1C13.1 15 13.2 14.8 13.2 14.7C13.2 14.6 13.2 14.4 13.1 14.3C13 14.2 12.6 13.1 12.4 12.6C12.3 12.3 12.1 12.3 12 12.3C11.9 12.3 11.7 12.3 11.6 12.3C11.4 12.3 11.2 12.4 11 12.6C10.8 12.8 10.3 13.3 10.3 14.4C10.3 15.5 11.1 16.6 11.2 16.7C11.3 16.9 12.6 19 14.7 19.9C16.8 20.8 16.8 20.5 17.2 20.5C17.6 20.5 18.5 20 18.7 19.5C18.9 19 18.9 18.6 18.8 18.5C18.7 18.5 18.6 18.5 18.4 18.4C18.2 18.4 19.7 18.6 19.5 18.5Z" fill="#25D366"/>
</svg>
